<svg width="26" height="26" viewBox="0 0 26 26" fill="none" xmlns="http://www.w3.org/2000/svg">
<path d="M0.604004 25.4467L2.35437 19.0548C1.27467 17.184 0.706757 15.0619 0.70755 12.8879C0.710327 6.08658 6.24509 0.553223 13.0462 0.553223C16.3466 0.554611 19.4445 1.83922 21.7741 4.17078C24.1035 6.50235 25.3859 9.60159 25.3847 12.8978C25.3817 19.6989 19.8462 25.233 13.0462 25.233C13.0458 25.233 13.0464 25.233 13.0462 25.233H13.0409C10.9759 25.2323 8.94702 24.7143 7.14488 23.7314L0.604004 25.4467ZM7.44778 21.4985L7.82249 21.7204C9.39671 22.6547 11.2016 23.1488 13.0423 23.1498H13.0462C18.6984 23.1498 23.2989 18.5502 23.3013 12.897C23.3023 10.1574 22.2366 7.58125 20.3004 5.64344C18.364 3.70562 15.7894 2.63783 13.05 2.63664C7.39323 2.63664 2.79296 7.2357 2.79077 12.8887C2.78998 14.8259 3.33191 16.7123 4.35865 18.3449L4.60264 18.7329L3.56638 22.5161L7.44778 21.4985Z" fill="#0800C9"/>
<path d="M1.0332 25.0161L2.72307 18.8452C1.68047 17.0393 1.13239 14.9904 1.13298 12.8919C1.13556 6.326 6.47889 0.984253 13.0441 0.984253C16.2307 0.985641 19.2214 2.22581 21.4699 4.47665C23.7189 6.72749 24.9567 9.71942 24.9555 12.9012C24.9527 19.4672 19.6092 24.8096 13.0447 24.8096C13.0441 24.8096 13.0449 24.8096 13.0447 24.8096H13.0394C11.046 24.8088 9.08718 24.3085 7.34753 23.3603L1.0332 25.0161Z" fill="white"/>
<path d="M0.604004 25.4467L2.35437 19.0548C1.27467 17.184 0.706757 15.0619 0.70755 12.8879C0.710327 6.08658 6.24509 0.553223 13.0462 0.553223C16.3466 0.554611 19.4445 1.83922 21.7741 4.17078C24.1035 6.50235 25.3859 9.60159 25.3847 12.8978C25.3817 19.6989 19.8462 25.233 13.0462 25.233C13.0458 25.233 13.0464 25.233 13.0462 25.233H13.0409C10.9759 25.2323 8.94702 24.7143 7.14488 23.7314L0.604004 25.4467ZM7.44778 21.4985L7.82249 21.7204C9.39671 22.6547 11.2016 23.1488 13.0423 23.1498H13.0462C18.6984 23.1498 23.2989 18.5502 23.3013 12.897C23.3023 10.1574 22.2366 7.58125 20.3004 5.64344C18.364 3.70562 15.7894 2.63783 13.05 2.63664C7.39323 2.63664 2.79296 7.2357 2.79077 12.8887C2.78998 14.8259 3.33191 16.7123 4.35865 18.3449L4.60264 18.7329L3.56638 22.5161L7.44778 21.4985Z" fill="white"/>
<path fill-rule="evenodd" clip-rule="evenodd" d="M9.96229 7.73124C9.73139 7.21787 9.4882 7.20755 9.26841 7.19863C9.08869 7.19089 8.88299 7.19129 8.67768 7.19129C8.47218 7.19129 8.13813 7.26865 7.85566 7.57711C7.573 7.88557 6.77637 8.63142 6.77637 10.1483C6.77637 11.6654 7.88125 13.1311 8.03538 13.337C8.18951 13.5427 10.1682 16.7551 13.3017 17.9909C15.9061 19.018 16.4359 18.8137 17.0012 18.7623C17.5666 18.711 18.8252 18.0165 19.0821 17.2966C19.3391 16.5767 19.3391 15.9598 19.262 15.8307C19.1848 15.7023 18.9793 15.6252 18.6711 15.4711C18.3628 15.3169 16.8471 14.5709 16.5644 14.4681C16.2818 14.3652 16.0763 14.314 15.8708 14.6226C15.665 14.9309 15.0747 15.6252 14.8948 15.8307C14.7149 16.0368 14.535 16.0626 14.2267 15.9082C13.9185 15.7537 12.9254 15.4284 11.7476 14.3781C10.8311 13.561 10.2122 12.5517 10.0323 12.2431C9.85259 11.9348 10.0293 11.7825 10.1678 11.614C10.4171 11.3107 10.8355 10.7654 10.9382 10.5599C11.041 10.354 10.9896 10.1741 10.9126 10.0198C10.8355 9.86565 10.2362 8.34101 9.96229 7.73124V7.73124Z" fill="#0800C9"/>
</svg>
