<svg width="26" height="26" viewBox="0 0 26 26" fill="none" xmlns="http://www.w3.org/2000/svg">

<path d="M1.0332 25.0161L2.72307 18.8452C1.68047 17.0393 1.13239 14.9904 1.13298 12.8919C1.13556 6.326 6.47889 0.984253 13.0441 0.984253C16.2307 0.985641 19.2214 2.22581 21.4699 4.47665C23.7189 6.72749 24.9567 9.71942 24.9555 12.9012C24.9527 19.4672 19.6092 24.8096 13.0447 24.8096C13.0441 24.8096 13.0449 24.8096 13.0447 24.8096H13.0394C11.046 24.8088 9.08718 24.3085 7.34753 23.3603L1.0332 25.0161Z" fill="#ffffff"/>

<path id="phone" fill-rule="evenodd" clip-rule="evenodd" d="M9.96229 7.73124C9.73139 7.21787 9.4882 7.20755 9.26841 7.19863C9.08869 7.19089 8.88299 7.19129 8.67768 7.19129C8.47218 7.19129 8.13813 7.26865 7.85566 7.57711C7.573 7.88557 6.77637 8.63142 6.77637 10.1483C6.77637 11.6654 7.88125 13.1311 8.03538 13.337C8.18951 13.5427 10.1682 16.7551 13.3017 17.9909C15.9061 19.018 16.4359 18.8137 17.0012 18.7623C17.5666 18.711 18.8252 18.0165 19.0821 17.2966C19.3391 16.5767 19.3391 15.9598 19.262 15.8307C19.1848 15.7023 18.9793 15.6252 18.6711 15.4711C18.3628 15.3169 16.8471 14.5709 16.5644 14.4681C16.2818 14.3652 16.0763 14.314 15.8708 14.6226C15.665 14.9309 15.0747 15.6252 14.8948 15.8307C14.7149 16.0368 14.535 16.0626 14.2267 15.9082C13.9185 15.7537 12.9254 15.4284 11.7476 14.3781C10.8311 13.561 10.2122 12.5517 10.0323 12.2431C9.85259 11.9348 10.0293 11.7825 10.1678 11.614C10.4171 11.3107 10.8355 10.7654 10.9382 10.5599C11.041 10.354 10.9896 10.1741 10.9126 10.0198C10.8355 9.86565 10.2362 8.34101 9.96229 7.73124V7.73124Z" fill="white">
<style>
    #phone {
        fill: #0800C9 !important;
    }
</style>
</path>
</svg>
